<svg id="visual" viewBox="0 0 900 600" width="900" height="600" xmlns="http://www.w3.org/2000/svg" xmlns:xlink="http://www.w3.org/1999/xlink" version="1.1"><rect x="0" y="0" width="900" height="600" fill="#001220"></rect><path d="M0 359L21.5 366.2C43 373.3 86 387.7 128.8 381.8C171.7 376 214.3 350 257.2 349.3C300 348.7 343 373.3 385.8 371.7C428.7 370 471.3 342 514.2 339.3C557 336.7 600 359.3 642.8 375C685.7 390.7 728.3 399.3 771.2 388.2C814 377 857 346 878.5 330.5L900 315L900 601L878.5 601C857 601 814 601 771.2 601C728.3 601 685.7 601 642.8 601C600 601 557 601 514.2 601C471.3 601 428.7 601 385.8 601C343 601 300 601 257.2 601C214.3 601 171.7 601 128.8 601C86 601 43 601 21.5 601L0 601Z" fill="#69fad2"></path><path d="M0 362L21.5 370.5C43 379 86 396 128.8 410C171.7 424 214.3 435 257.2 439.2C300 443.3 343 440.7 385.8 430.7C428.7 420.7 471.3 403.3 514.2 399C557 394.7 600 403.3 642.8 412.8C685.7 422.3 728.3 432.7 771.2 427.2C814 421.7 857 400.3 878.5 389.7L900 379L900 601L878.5 601C857 601 814 601 771.2 601C728.3 601 685.7 601 642.8 601C600 601 557 601 514.2 601C471.3 601 428.7 601 385.8 601C343 601 300 601 257.2 601C214.3 601 171.7 601 128.8 601C86 601 43 601 21.5 601L0 601Z" fill="#34e3d9"></path><path d="M0 425L21.5 434.2C43 443.3 86 461.7 128.8 465.2C171.7 468.7 214.3 457.3 257.2 457C300 456.7 343 467.3 385.8 475.2C428.7 483 471.3 488 514.2 482.2C557 476.3 600 459.7 642.8 447.7C685.7 435.7 728.3 428.3 771.2 428.8C814 429.3 857 437.7 878.5 441.8L900 446L900 601L878.5 601C857 601 814 601 771.2 601C728.3 601 685.7 601 642.8 601C600 601 557 601 514.2 601C471.3 601 428.7 601 385.8 601C343 601 300 601 257.2 601C214.3 601 171.7 601 128.8 601C86 601 43 601 21.5 601L0 601Z" fill="#00cad9"></path><path d="M0 528L21.5 516.3C43 504.7 86 481.3 128.8 481.7C171.7 482 214.3 506 257.2 507.3C300 508.7 343 487.3 385.8 484.2C428.7 481 471.3 496 514.2 501.2C557 506.3 600 501.7 642.8 496.5C685.7 491.3 728.3 485.7 771.2 479.7C814 473.7 857 467.3 878.5 464.2L900 461L900 601L878.5 601C857 601 814 601 771.2 601C728.3 601 685.7 601 642.8 601C600 601 557 601 514.2 601C471.3 601 428.7 601 385.8 601C343 601 300 601 257.2 601C214.3 601 171.7 601 128.8 601C86 601 43 601 21.5 601L0 601Z" fill="#00b1d2"></path><path d="M0 546L21.5 545.5C43 545 86 544 128.8 538.5C171.7 533 214.3 523 257.2 524.2C300 525.3 343 537.7 385.8 537.7C428.7 537.7 471.3 525.3 514.2 524.3C557 523.3 600 533.7 642.8 533C685.7 532.3 728.3 520.7 771.2 520.7C814 520.7 857 532.3 878.5 538.2L900 544L900 601L878.5 601C857 601 814 601 771.2 601C728.3 601 685.7 601 642.8 601C600 601 557 601 514.2 601C471.3 601 428.7 601 385.8 601C343 601 300 601 257.2 601C214.3 601 171.7 601 128.8 601C86 601 43 601 21.5 601L0 601Z" fill="#2197c4"></path></svg>